<svg width="23" height="23" viewBox="0 0 23 23" fill="none" xmlns="http://www.w3.org/2000/svg">
<path d="M0 15.3904C1.70424 18.2454 4.39632 20.4426 7.60462 21.5107C8.30507 21.6387 8.56033 21.2064 8.56033 20.8352C8.56033 20.6814 8.55775 20.4098 8.55429 20.0464C8.55029 19.6254 8.54511 19.0813 8.54142 18.4545C4.64726 19.3002 3.82562 16.5775 3.82562 16.5775C3.18877 14.9609 2.27088 14.5303 2.27088 14.5303C0.999754 13.6614 2.36714 13.6786 2.36714 13.6786C3.77234 13.7783 4.51146 15.1216 4.51146 15.1216C5.76024 17.2608 7.78854 16.6428 8.58611 16.2853C8.71331 15.3803 9.07428 14.7632 9.47478 14.4134C6.36616 14.0602 3.09767 12.8587 3.09767 7.49409C3.09767 5.96601 3.64342 4.71638 4.53897 3.73748C4.39458 3.38339 3.91415 1.96016 4.67562 0.0324414C4.67562 0.0324414 5.85135 -0.343993 8.52595 1.4677C9.64238 1.15745 10.8404 1.00189 12.0308 0.996733C13.2194 1.00189 14.4175 1.15745 15.5356 1.4677C18.2085 -0.343993 19.3817 0.0324414 19.3817 0.0324414C20.1457 1.96016 19.6653 3.38339 19.5209 3.73748C20.4182 4.71638 20.9605 5.96601 20.9605 7.49409C20.9605 12.8725 17.6868 14.0559 14.5679 14.4023C15.0707 14.8346 15.5184 15.6888 15.5184 16.9952C15.5184 18.2465 15.5107 19.3363 15.5056 20.0583C15.5031 20.4158 15.5012 20.6831 15.5012 20.8352C15.5012 21.2099 15.7531 21.6456 16.4638 21.509C19.0196 20.6558 21.2475 19.0866 22.9087 17.0391C20.3419 20.2034 16.4223 22.2257 12.0304 22.2257C6.9166 22.2257 2.44321 19.484 0 15.3904Z" fill="white"/>
</svg>
