<svg width="30" height="30" viewBox="0 0 30 30" fill="none" xmlns="http://www.w3.org/2000/svg">
<path d="M7.60722 29.8939C5.8231 29.8128 4.85392 29.5159 4.20929 29.2644C3.35513 28.9319 2.74616 28.536 2.10509 27.8958C1.46402 27.2556 1.06726 26.6467 0.73647 25.7925C0.485036 25.1479 0.18813 24.1787 0.106993 22.3946C0.0178321 20.466 -9.20213e-08 19.8874 -6.94131e-08 15.0013C-4.68048e-08 10.1153 0.0196154 9.53755 0.106102 7.60722C0.187238 5.8231 0.485927 4.85571 0.735578 4.20929C1.06815 3.35513 1.46492 2.74616 2.1042 2.1042C2.74438 1.46402 3.35334 1.06637 4.2084 0.735578C4.85303 0.484144 5.82221 0.187238 7.60632 0.106102C9.53577 0.0178322 10.1153 -5.04956e-08 14.9996 -7.48777e-08C19.8856 -9.92687e-08 20.4633 0.0196153 22.3937 0.106101C24.1778 0.187238 25.1452 0.485927 25.7916 0.735578C26.6458 1.06637 27.2547 1.46402 27.8958 2.1042C28.5369 2.74438 28.9319 3.35424 29.2644 4.2084C29.5159 4.85303 29.8128 5.82221 29.8939 7.60632C29.9822 9.53666 30 10.1144 30 15.0004C30 19.8847 29.9822 20.4642 29.8939 22.3946C29.8128 24.1787 29.5141 25.1479 29.2644 25.7925C28.9319 26.6467 28.536 27.2556 27.8958 27.8958C27.2556 28.536 26.6458 28.9319 25.7916 29.2644C25.147 29.5159 24.1778 29.8128 22.3937 29.8939C20.4651 29.9822 19.8856 30 14.9996 30C10.1153 30 9.53577 29.9831 7.60722 29.8939Z" fill="url(#paint0_radial)"/>
<path d="M7.60722 29.8939C5.8231 29.8128 4.85392 29.5159 4.20929 29.2644C3.35513 28.9319 2.74616 28.536 2.10509 27.8958C1.46402 27.2556 1.06726 26.6467 0.73647 25.7925C0.485036 25.1479 0.18813 24.1787 0.106993 22.3946C0.0178321 20.466 -9.20213e-08 19.8874 -6.94131e-08 15.0013C-4.68048e-08 10.1153 0.0196154 9.53755 0.106102 7.60722C0.187238 5.8231 0.485927 4.85571 0.735578 4.20929C1.06815 3.35513 1.46492 2.74616 2.1042 2.1042C2.74438 1.46402 3.35334 1.06637 4.2084 0.735578C4.85303 0.484144 5.82221 0.187238 7.60632 0.106102C9.53577 0.0178322 10.1153 -5.04956e-08 14.9996 -7.48777e-08C19.8856 -9.92687e-08 20.4633 0.0196153 22.3937 0.106101C24.1778 0.187238 25.1452 0.485927 25.7916 0.735578C26.6458 1.06637 27.2547 1.46402 27.8958 2.1042C28.5369 2.74438 28.9319 3.35424 29.2644 4.2084C29.5159 4.85303 29.8128 5.82221 29.8939 7.60632C29.9822 9.53666 30 10.1144 30 15.0004C30 19.8847 29.9822 20.4642 29.8939 22.3946C29.8128 24.1787 29.5141 25.1479 29.2644 25.7925C28.9319 26.6467 28.536 27.2556 27.8958 27.8958C27.2556 28.536 26.6458 28.9319 25.7916 29.2644C25.147 29.5159 24.1778 29.8128 22.3937 29.8939C20.4651 29.9822 19.8856 30 14.9996 30C10.1153 30 9.53577 29.9831 7.60722 29.8939Z" fill="url(#paint1_radial)"/>
<path d="M11.3154 15.067C11.3154 13.0153 12.9782 11.3516 15.0299 11.3516C17.0816 11.3516 18.7452 13.0153 18.7452 15.067C18.7452 17.1187 17.0816 18.7823 15.0299 18.7823C12.9782 18.7823 11.3154 17.1187 11.3154 15.067ZM9.307 15.067C9.307 18.2277 11.8691 20.7899 15.0299 20.7899C18.1906 20.7899 20.7528 18.2277 20.7528 15.067C20.7528 11.9062 18.1906 9.3441 15.0299 9.3441C11.8691 9.3441 9.30709 11.9061 9.30709 15.067L9.307 15.067ZM19.642 9.11719C19.6419 9.3817 19.7202 9.64031 19.8671 9.86031C20.014 10.0803 20.2228 10.2518 20.4671 10.3531C20.7115 10.4545 20.9804 10.481 21.2398 10.4295C21.4993 10.378 21.7376 10.2508 21.9247 10.0638C22.1118 9.87683 22.2393 9.63858 22.291 9.37916C22.3427 9.11975 22.3164 8.85083 22.2152 8.60641C22.1141 8.36199 21.9428 8.15305 21.7229 8.006C21.503 7.85896 21.2445 7.78042 20.9799 7.78031L20.9794 7.78031C20.6249 7.78048 20.2849 7.92136 20.0341 8.17202C19.7833 8.42269 19.6423 8.76263 19.642 9.11719ZM10.5273 24.1389C9.44065 24.0894 8.85005 23.9084 8.45756 23.7555C7.93722 23.553 7.56595 23.3117 7.17561 22.9219C6.78526 22.5321 6.54363 22.1612 6.34195 21.6408C6.18895 21.2485 6.00795 20.6577 5.95856 19.5711C5.90453 18.3963 5.89374 18.0434 5.89374 15.0672C5.89374 12.0909 5.90542 11.739 5.95856 10.5632C6.00804 9.4766 6.19038 8.88697 6.34195 8.49351C6.54453 7.97317 6.78579 7.6019 7.17561 7.21155C7.56542 6.82121 7.93633 6.57958 8.45756 6.3779C8.84987 6.2249 9.44065 6.0439 10.5273 5.99451C11.702 5.94048 12.0549 5.92969 15.0299 5.92969C18.0048 5.92969 18.3581 5.94119 19.5338 5.99469C20.6205 6.04417 21.2101 6.2265 21.6035 6.37808C22.1239 6.57976 22.4951 6.82192 22.8855 7.21173C23.2758 7.60154 23.5166 7.97334 23.7191 8.49369C23.8721 8.88599 24.0531 9.47677 24.1025 10.5634C24.1566 11.7391 24.1674 12.0911 24.1674 15.0673C24.1674 18.0436 24.1566 18.3955 24.1025 19.5713C24.0531 20.6579 23.8712 21.2485 23.7191 21.641C23.5166 22.1613 23.2753 22.5326 22.8855 22.9221C22.4957 23.3115 22.1239 23.5531 21.6035 23.7557C21.2112 23.9087 20.6205 24.0897 19.5338 24.1391C18.3591 24.1931 18.0062 24.2039 15.0299 24.2039C12.0536 24.2039 11.7017 24.1931 10.5273 24.1391L10.5273 24.1389ZM10.435 3.98937C9.24851 4.0434 8.43777 4.23153 7.72974 4.50704C6.99693 4.79155 6.37574 5.17325 5.75545 5.79256C5.13516 6.41187 4.75444 7.03314 4.46993 7.76685C4.19442 8.47532 4.00629 9.28561 3.95226 10.4721C3.89734 11.6604 3.88477 12.0403 3.88477 15.067C3.88477 18.0936 3.89734 18.4735 3.95226 19.6619C4.00629 20.8484 4.19442 21.6586 4.46993 22.3671C4.75444 23.0999 5.13525 23.7224 5.75545 24.3414C6.37565 24.9604 6.99604 25.3416 7.72974 25.6269C8.43911 25.9024 9.24851 26.0906 10.435 26.1446C11.6239 26.1986 12.0032 26.2121 15.0299 26.2121C18.0565 26.2121 18.4365 26.1995 19.6248 26.1446C20.8113 26.0906 21.6215 25.9024 22.33 25.6269C23.0628 25.3416 23.684 24.9607 24.3043 24.3414C24.9246 23.7221 25.3045 23.0999 25.5898 22.3671C25.8653 21.6586 26.0544 20.8483 26.1075 19.6619C26.1615 18.4727 26.1741 18.0936 26.1741 15.067C26.1741 12.0403 26.1615 11.6604 26.1075 10.4721C26.0535 9.28552 25.8653 8.47487 25.5898 7.76685C25.3045 7.03403 24.9236 6.41285 24.3043 5.79256C23.685 5.17227 23.0628 4.79155 22.3309 4.50704C21.6215 4.23153 20.8113 4.04251 19.6257 3.98937C18.4372 3.93507 18.0574 3.92188 15.0312 3.92188C12.005 3.92188 11.6244 3.93445 10.4354 3.98937" fill="white"/>
<defs>
<radialGradient id="paint0_radial" cx="0" cy="0" r="1" gradientUnits="userSpaceOnUse" gradientTransform="translate(1.94157 29.3428) scale(38.0889)">
<stop offset="0.09" stop-color="#FA8F21"/>
<stop offset="0.78" stop-color="#D82D7E"/>
</radialGradient>
<radialGradient id="paint1_radial" cx="0" cy="0" r="1" gradientUnits="userSpaceOnUse" gradientTransform="translate(20.78 28.3795) scale(33.5186)">
<stop offset="0.64" stop-color="#8C3AAA" stop-opacity="0"/>
<stop offset="1" stop-color="#8C3AAA"/>
</radialGradient>
</defs>
</svg>
