<svg width="21" height="21" viewBox="0 0 21 21" fill="none" xmlns="http://www.w3.org/2000/svg">
<path d="M6.93529 10.4021C6.93529 8.4872 8.48721 6.93445 10.4021 6.93445C12.317 6.93445 13.8698 8.4872 13.8698 10.4021C13.8698 12.317 12.317 13.8697 10.4021 13.8697C8.48721 13.8697 6.93529 12.317 6.93529 10.4021V10.4021ZM5.06075 10.4021C5.06075 13.3521 7.45207 15.7435 10.4021 15.7435C13.3521 15.7435 15.7435 13.3521 15.7435 10.4021C15.7435 7.45206 13.3521 5.06075 10.4021 5.06075C7.45207 5.06075 5.06083 7.4519 5.06083 10.4021L5.06075 10.4021ZM14.7067 4.84896C14.7067 5.09584 14.7798 5.33721 14.9168 5.54254C15.0539 5.74786 15.2488 5.90793 15.4769 6.0025C15.7049 6.09707 15.9559 6.12189 16.198 6.07382C16.4402 6.02576 16.6627 5.90696 16.8373 5.73246C17.0119 5.55796 17.1309 5.33559 17.1792 5.09347C17.2274 4.85135 17.2028 4.60036 17.1084 4.37223C17.014 4.14411 16.8541 3.94909 16.6489 3.81185C16.4437 3.67461 16.2024 3.60131 15.9555 3.60121L15.955 3.60121C15.6241 3.60136 15.3067 3.73285 15.0727 3.96681C14.8387 4.20076 14.707 4.51804 14.7067 4.84896V4.84896ZM6.19966 18.8692C5.18549 18.8231 4.63426 18.6541 4.26794 18.5114C3.78229 18.3223 3.43577 18.0972 3.07145 17.7333C2.70713 17.3695 2.48161 17.0233 2.29337 16.5377C2.15057 16.1715 1.98164 15.6201 1.93554 14.606C1.88511 13.5095 1.87504 13.1801 1.87504 10.4023C1.87504 7.62441 1.88594 7.29595 1.93554 6.19857C1.98173 5.18441 2.1519 4.63409 2.29337 4.26686C2.48244 3.7812 2.70763 3.43469 3.07145 3.07037C3.43528 2.70604 3.78146 2.48053 4.26794 2.29229C4.6341 2.14949 5.18549 1.98056 6.19966 1.93446C7.29612 1.88403 7.62549 1.87396 10.4021 1.87396C13.1787 1.87396 13.5084 1.88469 14.6058 1.93462C15.62 1.98081 16.1703 2.15099 16.5375 2.29246C17.0232 2.48069 17.3697 2.70671 17.734 3.07053C18.0983 3.43436 18.323 3.78137 18.5121 4.26702C18.6549 4.63318 18.8238 5.18457 18.8699 6.19874C18.9204 7.29612 18.9304 7.62457 18.9304 10.4024C18.9304 13.1803 18.9204 13.5087 18.8699 14.6061C18.8237 15.6203 18.654 16.1715 18.5121 16.5378C18.323 17.0235 18.0978 17.37 17.734 17.7335C17.3702 18.097 17.0232 18.3225 16.5375 18.5116C16.1714 18.6544 15.62 18.8233 14.6058 18.8694C13.5093 18.9198 13.18 18.9299 10.4021 18.9299C7.62425 18.9299 7.29579 18.9198 6.19966 18.8694L6.19966 18.8692ZM6.11353 0.0629952C5.00616 0.113425 4.24947 0.289012 3.58864 0.546152C2.90468 0.811697 2.32491 1.16795 1.74597 1.74597C1.16703 2.324 0.811697 2.90385 0.546152 3.58864C0.289012 4.24988 0.113425 5.00616 0.0629953 6.11352C0.0117337 7.22264 3.23992e-08 7.57722 4.4478e-08 10.4021C5.65568e-08 13.227 0.0117337 13.5816 0.0629953 14.6907C0.113425 15.7981 0.289012 16.5543 0.546152 17.2156C0.811697 17.8995 1.16712 18.4805 1.74597 19.0582C2.32483 19.636 2.90385 19.9918 3.58864 20.258C4.25072 20.5152 5.00616 20.6908 6.11353 20.7412C7.22322 20.7916 7.57723 20.8042 10.4021 20.8042C13.227 20.8042 13.5816 20.7925 14.6907 20.7412C15.7981 20.6908 16.5543 20.5152 17.2156 20.258C17.8995 19.9918 18.4793 19.6362 19.0582 19.0582C19.6372 18.4802 19.9918 17.8995 20.2581 17.2156C20.5152 16.5543 20.6916 15.798 20.7412 14.6907C20.7917 13.5807 20.8034 13.227 20.8034 10.4021C20.8034 7.57722 20.7917 7.22264 20.7412 6.11352C20.6908 5.00607 20.5152 4.24947 20.2581 3.58864C19.9918 2.90468 19.6363 2.32491 19.0582 1.74597C18.4802 1.16703 17.8995 0.811697 17.2164 0.546152C16.5543 0.289012 15.7981 0.112592 14.6915 0.0629952C13.5822 0.0123162 13.2278 5.65673e-08 10.4034 4.44888e-08C7.57889 3.24103e-08 7.22364 0.0117337 6.11394 0.0629952" fill="white"/>
</svg>
