<svg width="16" height="16" viewBox="0 0 16 16" fill="none" xmlns="http://www.w3.org/2000/svg">
<path fill-rule="evenodd" clip-rule="evenodd" d="M3.34232 2.19735C3.34232 3.06892 2.6787 3.77425 1.64091 3.77425C0.643548 3.77425 -0.0200741 3.06892 0.000463578 2.19735C-0.0200741 1.28343 0.643533 0.598633 1.66079 0.598633C2.67868 0.598633 3.32243 1.28343 3.34232 2.19735ZM0.0839009 15.172V5.01998H3.23899V15.1713H0.0839009V15.172Z" fill="white"/>
<path fill-rule="evenodd" clip-rule="evenodd" d="M5.7685 8.26128C5.7685 6.99501 5.72678 5.9155 5.68506 5.02276H8.42554L8.57123 6.41354H8.63349C9.04874 5.76982 10.0865 4.79492 11.768 4.79492C13.8436 4.79492 15.4006 6.16516 15.4006 9.15338V15.1747H12.2455V9.54873C12.2455 8.2401 11.7892 7.348 10.6475 7.348C9.77525 7.348 9.25669 7.95001 9.04938 8.53083C8.96595 8.73878 8.92487 9.02887 8.92487 9.32025V15.1747H5.76977V8.26128H5.7685Z" fill="white"/>
</svg>
