<svg width="56" height="55" viewBox="0 0 56 55" fill="none" xmlns="http://www.w3.org/2000/svg">
<rect x="0.738281" y="0.0102539" width="54.5248" height="54.5248" rx="27.2624" fill="#F9F9F9"/>
<g clip-path="url(#clip0)">
<path d="M28.0012 30.2035C30.9311 30.2035 33.3138 27.8207 33.3138 24.8908C33.3138 21.9609 30.9311 19.5781 28.0012 19.5781C25.0712 19.5781 22.6885 21.9609 22.6885 24.8908C22.6885 27.8207 25.0712 30.2035 28.0012 30.2035ZM28.0012 22.2345C29.4661 22.2345 30.6575 23.4258 30.6575 24.8908C30.6575 26.3558 29.4661 27.5471 28.0012 27.5471C26.5362 27.5471 25.3448 26.3558 25.3448 24.8908C25.3448 23.4258 26.5362 22.2345 28.0012 22.2345Z" fill="black"/>
<path d="M26.9518 40.581C27.1766 40.7415 27.4459 40.8278 27.7221 40.8278C27.9984 40.8278 28.2677 40.7415 28.4925 40.581C28.8962 40.2954 38.386 33.4434 38.3475 24.89C38.3475 19.0314 33.5807 14.2646 27.7221 14.2646C21.8636 14.2646 17.0968 19.0314 17.0968 24.8834C17.0583 33.4434 26.548 40.2954 26.9518 40.581ZM27.7221 16.921C32.1171 16.921 35.6912 20.4951 35.6912 24.8966C35.719 30.791 29.8632 36.0838 27.7221 37.8197C25.5825 36.0825 19.7252 30.7884 19.7531 24.89C19.7531 20.4951 23.3272 16.921 27.7221 16.921Z" fill="black"/>
</g>
<defs>
<clipPath id="clip0">
<rect width="21.8099" height="26.843" fill="white" transform="translate(17.0957 14.125)"/>
</clipPath>
</defs>
</svg>
