<svg width="56" height="55" viewBox="0 0 56 55" fill="none" xmlns="http://www.w3.org/2000/svg">
<rect x="0.738281" y="-0.508224" width="54.5248" height="54.5248" rx="27.2624" fill="#F9F9F9"/>
<path d="M37.7378 18.64H18.2647C17.8504 18.64 17.5157 18.9808 17.5157 19.4026V34.6543C17.5157 35.0761 17.8504 35.4169 18.2647 35.4169H37.7378C38.1521 35.4169 38.4868 35.0761 38.4868 34.6543V19.4026C38.4868 18.9808 38.1521 18.64 37.7378 18.64ZM36.8016 21.2805V33.7011H19.2009V21.2805L18.5549 20.7681L19.4747 19.5646L20.4764 20.3582H35.5283L36.5301 19.5646L37.4499 20.7681L36.8016 21.2805ZM35.5283 20.3558L28.0012 26.3135L20.4741 20.3558L19.4724 19.5623L18.5525 20.7657L19.1985 21.2781L27.1937 27.6075C27.4237 27.7894 27.7066 27.8881 27.9977 27.8881C28.2889 27.8881 28.5718 27.7894 28.8017 27.6075L36.8016 21.2805L37.4476 20.7681L36.5278 19.5646L35.5283 20.3558Z" fill="black"/>
</svg>
