<svg width="18" height="14" viewBox="0 0 18 14" fill="none" xmlns="http://www.w3.org/2000/svg">
<path fill-rule="evenodd" clip-rule="evenodd" d="M17.4001 1.61605C16.7825 1.89043 16.1178 2.07522 15.4206 2.15865C16.1323 1.73196 16.6789 1.05665 16.9359 0.251982C16.2707 0.647315 15.5321 0.933458 14.7476 1.08857C14.1187 0.418852 13.2222 0 12.2316 0C10.3283 0 8.78507 1.54326 8.78507 3.44657C8.78507 3.71647 8.81587 3.97965 8.87467 4.2322C6.0099 4.08885 3.47047 2.71638 1.77042 0.631077C1.47364 1.14008 1.30397 1.73197 1.30397 2.36361C1.30397 3.55913 1.91153 4.6141 2.83715 5.2323C2.27159 5.21438 1.74074 5.05927 1.27541 4.80112V4.84424C1.27541 6.51461 2.46421 7.90724 4.03995 8.22473C3.75101 8.30313 3.44639 8.34569 3.13225 8.34569C2.90994 8.34569 2.6938 8.32384 2.48325 8.28353C2.9217 9.65264 4.19506 10.6494 5.70304 10.6774C4.52376 11.6013 3.03761 12.1529 1.42268 12.1529C1.14382 12.1529 0.86944 12.1366 0.600098 12.1042C2.12544 13.0818 3.93691 13.653 5.88334 13.653C12.2227 13.653 15.6894 8.40112 15.6894 3.84694C15.6894 3.69743 15.6866 3.54849 15.6793 3.40122C16.3535 2.91405 16.9381 2.30705 17.4001 1.61605Z" fill="white"/>
</svg>
