<svg width="26" height="26" viewBox="0 0 26 26" fill="none" xmlns="http://www.w3.org/2000/svg">
<path d="M20.3904 25.0371L3.20291 25.0353C2.37411 25.0352 1.57929 24.7059 0.993297 24.1198C0.407308 23.5337 0.078153 22.7388 0.0782411 21.91L0.0800681 4.72262C0.0801562 3.89383 0.409481 3.09901 0.995594 2.51303C1.58171 1.92704 2.3766 1.59789 3.2054 1.59798L9.4554 1.59864L9.45507 4.72362L3.20507 4.72295L3.20324 21.9103L20.3907 21.9122L20.3914 15.6622L23.5164 15.6625L23.5157 21.9125C23.5157 22.7413 23.1863 23.5361 22.6002 24.1221C22.0141 24.7081 21.2192 25.0372 20.3904 25.0371ZM12.1102 15.2035L9.90731 12.9939L19.7412 3.16222L14.1427 3.16163L14.1431 0.0366511L25.0806 0.0378138L25.0794 10.9752L21.9544 10.9749L21.955 5.37338L12.1102 15.2035V15.2035Z" fill="white"/>
</svg>
