<svg width="18" height="13" viewBox="0 0 18 13" fill="none" xmlns="http://www.w3.org/2000/svg">
<path fill-rule="evenodd" clip-rule="evenodd" d="M17.0103 0.964649C17.2897 1.24402 17.491 1.5917 17.5942 1.97307C18.1885 4.365 18.0511 8.14269 17.6058 10.6269C17.5026 11.0083 17.3012 11.356 17.0219 11.6354C16.7425 11.9147 16.3948 12.116 16.0135 12.2192C14.6173 12.6 8.99807 12.6 8.99807 12.6C8.99807 12.6 3.37884 12.6 1.98268 12.2192C1.60131 12.116 1.25362 11.9147 0.974253 11.6354C0.694883 11.356 0.493575 11.0083 0.390376 10.6269C-0.207317 8.24539 -0.04347 4.46539 0.378838 1.98462C0.482036 1.60324 0.683344 1.25555 0.962716 0.976184C1.24209 0.696815 1.58977 0.495504 1.97114 0.39231C3.3673 0.0115356 8.98653 0 8.98653 0C8.98653 0 14.6058 0 16.0019 0.380768C16.3833 0.483969 16.731 0.685279 17.0103 0.964649ZM11.8596 6.3L7.19807 8.99999V3.59999L11.8596 6.3Z" fill="white"/>
</svg>
